<?xml version="1.0" standalone="no"?>
<!DOCTYPE svg PUBLIC "-//W3C//DTD SVG 20010904//EN"
 "http://www.w3.org/TR/2001/REC-SVG-20010904/DTD/svg10.dtd">
<svg version="1.0" xmlns="http://www.w3.org/2000/svg"
 width="1080.000000pt" height="1080.000000pt" viewBox="0 0 1080.000000 1080.000000"
 preserveAspectRatio="xMidYMid meet">
<metadata>
Created by potrace 1.14, written by Peter Selinger 2001-2017
</metadata>
<g transform="translate(0.000000,1080.000000) scale(0.100000,-0.100000)"
fill="#000000" stroke="none">
<path d="M5382 9723 c-50 -186 -66 -305 -66 -498 1 -112 9 -244 18 -290 2 -11
7 -45 11 -75 4 -30 16 -89 26 -130 10 -41 20 -86 23 -100 5 -28 71 -251 86
-290 5 -14 15 -38 21 -55 7 -16 13 -32 14 -35 54 -159 259 -597 399 -855 114
-209 130 -238 266 -475 62 -107 119 -206 127 -220 8 -14 23 -38 33 -55 11 -16
23 -37 27 -45 4 -8 43 -75 86 -150 44 -74 91 -155 105 -180 14 -25 36 -62 49
-82 12 -21 23 -40 23 -42 0 -2 23 -43 50 -91 28 -48 50 -90 50 -95 0 -5 3 -10
8 -12 4 -1 21 -30 38 -63 17 -33 48 -91 69 -130 97 -178 258 -509 341 -701 65
-150 82 -194 77 -194 -3 0 -1 -6 5 -12 5 -7 20 -42 32 -78 13 -36 27 -76 33
-90 6 -14 11 -27 12 -30 0 -3 17 -57 37 -120 36 -113 58 -190 57 -200 0 -3 4
-18 10 -33 11 -27 48 -194 57 -252 3 -16 9 -50 14 -75 5 -25 12 -67 15 -95 4
-27 8 -64 11 -80 22 -146 22 -574 -1 -693 -1 -9 -6 -42 -9 -72 -7 -58 -14 -91
-47 -235 -27 -117 -26 -115 -38 -150 -72 -216 -183 -483 -231 -555 -9 -14 -24
-41 -34 -60 -9 -19 -26 -48 -36 -65 -11 -16 -23 -37 -27 -45 -3 -8 -9 -17 -12
-20 -3 -3 -15 -21 -25 -40 -11 -19 -22 -37 -26 -40 -3 -3 -19 -26 -35 -52 -17
-27 -33 -48 -37 -48 -5 0 -8 -4 -8 -10 0 -8 -111 -162 -130 -180 -3 -3 -25
-30 -50 -60 -25 -30 -49 -60 -55 -66 -115 -130 -160 -178 -268 -285 l-127
-127 52 15 c29 8 60 17 68 20 8 3 20 7 26 8 26 6 202 80 290 122 116 55 292
157 397 229 43 30 82 54 87 54 5 0 10 3 12 8 2 4 32 29 68 57 36 27 70 54 77
60 6 5 28 24 48 40 131 107 376 355 435 439 8 12 23 30 33 41 11 11 26 31 35
45 9 14 35 50 58 80 151 201 318 533 405 805 31 94 87 325 95 385 2 19 6 49 9
65 2 17 7 57 10 90 3 33 8 78 10 100 6 49 6 363 0 425 -2 25 -6 72 -9 106 -3
33 -7 74 -10 90 -3 16 -10 58 -16 94 -14 92 -20 122 -26 142 -3 10 -7 30 -10
44 -7 37 -30 132 -43 172 -5 18 -10 33 -10 35 0 1 -2 9 -4 17 -3 8 -19 60 -36
115 -18 55 -36 109 -41 120 -5 11 -28 67 -51 125 -58 147 -147 332 -232 484
-40 70 -85 151 -101 180 -15 28 -32 53 -37 54 -5 2 -9 10 -9 17 0 8 -6 20 -13
27 -7 7 -25 35 -40 61 -16 26 -57 89 -92 140 -36 51 -79 114 -97 140 -18 27
-38 54 -43 60 -6 7 -22 28 -35 47 -13 19 -28 40 -32 45 -54 71 -296 384 -308
398 -8 10 -22 27 -30 37 -8 9 -26 32 -40 50 -14 19 -32 40 -40 49 -9 9 -43 50
-75 91 -33 41 -67 82 -75 90 -8 9 -24 27 -35 41 -46 56 -230 274 -235 279 -3
3 -25 30 -50 60 -25 30 -52 62 -60 71 -18 19 -42 48 -95 114 -22 28 -45 55
-51 60 -6 6 -39 46 -75 90 -35 44 -66 82 -69 85 -4 3 -31 37 -60 75 -29 39
-56 72 -60 75 -3 3 -26 32 -51 65 -53 72 -49 67 -99 131 -22 29 -40 56 -40 62
0 6 -4 12 -8 14 -11 4 -132 176 -132 187 0 5 -4 11 -8 13 -5 2 -26 31 -48 66
-21 35 -47 75 -56 90 -26 41 -72 126 -133 244 -137 268 -212 518 -231 778 -4
47 -8 86 -9 88 -1 2 -12 -32 -23 -75z"/>
<path d="M4964 9047 c-4 -138 -48 -362 -94 -472 -5 -11 -12 -31 -15 -45 -4
-14 -13 -38 -20 -55 -8 -16 -26 -59 -41 -95 -40 -97 -145 -307 -210 -417 -81
-138 -205 -334 -226 -357 -10 -11 -18 -23 -18 -27 0 -6 -94 -144 -166 -244
-67 -93 -95 -131 -101 -140 -5 -5 -26 -35 -48 -65 -22 -30 -44 -60 -50 -67 -5
-6 -21 -28 -35 -48 -52 -74 -142 -190 -153 -197 -7 -4 -7 -8 -2 -8 6 0 6 -3
-1 -8 -6 -4 -64 -79 -130 -167 -65 -88 -121 -162 -124 -165 -3 -3 -17 -21 -30
-40 -13 -19 -30 -41 -37 -48 -7 -8 -27 -35 -45 -60 -18 -26 -37 -52 -43 -59
-29 -35 -35 -43 -35 -52 0 -5 -4 -11 -8 -13 -20 -7 -400 -555 -487 -700 -5 -9
-43 -72 -84 -140 -125 -208 -131 -218 -126 -218 2 0 -8 -21 -23 -48 -38 -63
-142 -278 -157 -322 -9 -25 -19 -49 -30 -70 -15 -30 -112 -319 -118 -352 -2
-13 -7 -30 -10 -38 -10 -23 -47 -228 -53 -290 -3 -30 -8 -68 -10 -85 -5 -38
-4 -325 1 -385 2 -25 7 -76 10 -115 14 -171 82 -503 130 -635 8 -25 17 -52 19
-60 6 -25 82 -210 115 -282 69 -148 202 -363 298 -482 27 -32 53 -66 58 -75 6
-9 73 -79 150 -156 208 -209 441 -376 700 -500 106 -50 309 -131 350 -138 11
-2 27 -7 35 -10 50 -21 271 -68 390 -83 30 -4 66 -9 80 -11 49 -9 416 -11 476
-2 33 4 82 10 110 13 62 6 192 31 264 51 30 9 62 17 70 19 111 27 332 121 485
206 50 28 182 116 228 151 187 146 419 403 520 576 18 30 42 71 54 91 59 97
183 383 207 477 1 6 9 30 16 55 8 25 15 50 16 55 0 6 4 17 7 25 4 8 9 26 11
40 3 14 12 52 20 86 8 34 17 74 20 90 20 106 37 211 41 251 3 27 8 80 11 118
14 140 8 444 -10 585 -3 19 -7 58 -10 85 -6 43 -14 97 -32 194 -3 12 -12 53
-20 90 -9 36 -17 74 -20 84 -2 10 -6 27 -9 37 -3 10 -8 28 -10 40 -2 11 -9 35
-14 53 -52 160 -93 285 -100 302 -5 11 -24 58 -42 105 -47 122 -155 365 -170
384 -4 5 3 -26 16 -69 13 -42 26 -89 29 -104 3 -14 10 -48 16 -76 41 -189 55
-428 37 -635 -5 -67 -11 -101 -33 -215 -4 -16 -7 -38 -8 -47 -1 -10 -5 -21 -9
-24 -4 -4 -7 -15 -7 -24 0 -42 -80 -264 -132 -365 -120 -237 -235 -371 -473
-553 -99 -76 -379 -196 -505 -217 -19 -3 -43 -8 -52 -11 -9 -3 -34 -7 -55 -10
-260 -32 -494 -13 -728 59 -38 12 -72 22 -75 23 -3 0 -22 8 -42 17 -21 10 -39
17 -42 17 -8 0 -151 70 -198 98 -167 96 -376 280 -486 427 -28 39 -55 75 -59
80 -28 36 -136 229 -138 245 0 3 -3 10 -7 15 -31 50 -125 350 -134 430 -2 17
-6 41 -9 55 -3 14 -8 50 -11 80 -2 30 -7 73 -10 95 -6 46 -6 260 0 320 6 62
16 138 21 155 2 8 7 31 10 50 16 96 84 303 146 445 62 143 169 351 198 388 8
9 11 17 7 17 -4 0 7 20 24 44 16 25 30 49 30 55 0 6 4 11 8 11 4 0 13 12 19
28 14 32 63 115 72 122 3 3 12 16 18 30 7 14 40 68 73 120 33 52 63 102 68
110 4 9 32 56 62 105 30 50 62 102 70 117 8 15 33 58 54 95 99 171 301 571
311 617 1 6 7 25 14 41 39 95 89 234 96 265 1 3 9 30 19 61 9 31 18 65 20 75
2 11 10 39 17 64 6 25 13 52 15 60 1 8 4 24 7 35 3 11 8 40 13 65 4 25 8 47 9
50 1 3 5 32 9 65 4 33 10 71 12 85 23 146 23 523 0 695 -2 17 -7 57 -11 90
-10 82 -20 87 -21 12z"/>
</g>
</svg>
