<?xml version="1.0" standalone="no"?>
<!DOCTYPE svg PUBLIC "-//W3C//DTD SVG 20010904//EN"
 "http://www.w3.org/TR/2001/REC-SVG-20010904/DTD/svg10.dtd">
<svg version="1.0" xmlns="http://www.w3.org/2000/svg"
 width="500.000000pt" height="500.000000pt" viewBox="0 0 500.000000 500.000000"
 preserveAspectRatio="xMidYMid meet">
<metadata>
Created by potrace 1.14, written by Peter Selinger 2001-2017
</metadata>
<g transform="translate(0.000000,500.000000) scale(0.100000,-0.100000)"
fill="#000000" stroke="none">
<path d="M1826 3563 c-1 -1 -20 -5 -42 -8 -91 -14 -164 -31 -214 -50 -19 -7
-62 -23 -95 -36 -299 -112 -665 -372 -900 -640 -101 -114 -221 -283 -275 -386
-17 -32 -35 -65 -40 -73 -10 -18 -31 -67 -60 -139 -20 -51 -17 -75 8 -76 4 -1
26 -11 49 -23 30 -15 42 -18 46 -9 5 12 93 133 112 153 5 6 24 26 40 45 81 91
215 194 332 254 91 47 106 45 56 -7 -74 -78 -142 -167 -217 -287 -41 -65 -137
-251 -130 -251 4 0 2 -6 -4 -13 -10 -12 -43 -99 -39 -103 1 -1 26 -14 56 -30
l54 -28 19 25 c10 13 38 51 62 84 48 65 165 188 210 220 16 11 33 25 40 30 20
20 104 75 128 85 13 5 30 14 38 20 39 25 171 74 245 90 109 25 252 31 357 17
74 -9 172 -38 185 -54 27 -34 69 -207 68 -280 0 -24 4 -43 8 -43 6 0 5 -5 0
-12 -5 -7 -8 -24 -6 -38 2 -14 3 -31 3 -37 0 -19 0 -101 0 -115 0 -7 -1 -33
-3 -58 -2 -25 1 -51 6 -57 5 -7 6 -13 1 -13 -5 0 -9 -22 -9 -50 0 -27 4 -50 9
-50 5 0 4 -6 -1 -12 -10 -16 -10 -98 0 -115 5 -7 5 -13 0 -13 -4 0 -8 -22 -8
-50 0 -27 4 -50 8 -50 5 0 5 -5 1 -12 -11 -17 -11 -108 -1 -108 5 0 5 -5 1
-12 -15 -24 -11 -78 6 -79 8 -1 69 -2 135 -4 66 -1 122 -3 125 -4 3 0 4 -57 2
-126 l-3 -125 438 2 438 3 0 375 c0 206 -3 383 -8 393 -4 10 -4 17 2 17 5 0 7
10 5 23 -7 26 -7 24 0 108 15 207 92 402 195 494 32 29 130 86 161 94 71 18
178 21 235 6 62 -17 140 -60 194 -110 69 -63 96 -80 141 -90 34 -7 699 -9 730
-2 36 9 52 22 69 56 16 33 17 74 16 486 -1 248 -5 461 -9 475 -19 55 -55 70
-169 70 l-93 0 -2 91 c-3 99 -15 130 -61 153 -20 10 -113 12 -391 11 -416 -2
-399 1 -494 -88 -179 -168 -429 -170 -603 -4 -57 54 -93 82 -93 71 0 -3 -7 0
-16 7 -14 11 -112 14 -531 14 -283 0 -515 -1 -517 -2z m1032 -104 c12 -9 45
-37 72 -63 27 -25 52 -46 57 -46 8 -1 53 -35 53 -42 0 -1 -213 -2 -474 -1
-441 1 -480 0 -567 -19 -101 -22 -235 -64 -311 -98 -26 -11 -51 -21 -55 -21
-5 0 -15 -7 -24 -15 -9 -8 -19 -11 -22 -7 -4 3 -7 1 -7 -5 0 -6 -13 -13 -30
-17 -16 -4 -30 -11 -30 -16 0 -5 -5 -9 -11 -9 -10 0 -126 -67 -139 -80 -10
-11 -69 -50 -75 -50 -8 0 -186 -140 -212 -168 -13 -12 -23 -20 -23 -16 0 4 -6
1 -12 -8 -11 -14 -30 -21 -113 -44 -5 -2 -21 -5 -34 -8 -12 -3 -28 -10 -35
-15 -6 -5 -13 -9 -16 -9 -3 1 -27 -9 -55 -22 -27 -13 -56 -24 -64 -26 -8 -1
-17 -7 -20 -12 -3 -4 -13 -11 -21 -15 -51 -23 -170 -115 -259 -201 l-74 -71
33 60 c119 214 299 426 512 601 125 102 156 125 164 124 4 -1 10 3 13 8 17 27
267 170 371 212 30 12 69 28 85 35 31 14 127 43 164 50 11 2 25 6 29 9 5 3 35
7 67 11 32 3 60 6 61 8 1 1 222 2 491 2 431 0 491 -2 511 -16z m1575 11 c7 -7
9 -44 8 -107 l-1 -52 -237 -3 c-263 -3 -254 -1 -333 -75 -70 -66 -92 -83 -107
-83 -7 0 -13 -4 -13 -8 0 -16 -124 -45 -190 -45 -88 0 -132 8 -188 37 -53 27
-152 103 -152 117 0 4 18 7 41 5 113 -10 288 57 377 144 81 79 61 75 446 75
189 0 347 -2 349 -5z m-2412 -1212 c45 -51 93 -127 118 -188 42 -104 50 -180
51 -496 0 -163 3 -300 5 -305 5 -8 -123 -16 -162 -11 l-23 3 -1 407 c-1 429
-2 500 -13 545 -21 90 -19 94 25 45z"/>
</g>
</svg>
